<?xml version="1.0" encoding="UTF-8"?>
<svg width="2044" height="675" xmlns="http://www.w3.org/2000/svg" xmlns:svg="http://www.w3.org/2000/svg">

 <g>
  <title>Layer 1</title>
  <g id="#000000ff">
   <path id="svg_1" d="m301.380005,102.599998c11.589996,-2.619995 24.299988,0.169998 33.649994,7.520004c6.170013,4.75 10.589996,11.449997 13.369995,18.659996c1.390015,3.910004 1.089996,8.130005 1.179993,12.210007c-0.059998,4.259995 0.160004,8.569992 -0.75,12.759995c-4.119995,13.210007 -15.549988,23.470001 -28.759979,27.149994c-5.619995,0.980011 -11.410004,1.050003 -17.080017,0.560013c-15.470001,-2.520004 -28.549988,-15.12001 -31.940002,-30.360001c-0.589996,-6.700012 -0.72998,-13.529999 0.160004,-20.220001c3.930023,-13.980003 15.869995,-25.380005 30.170013,-28.280006z" fill="#ea5255"/>
   <path id="svg_2" d="m232.770004,203.770004c8.12999,-7.62001 18.819992,-13.020004 30.110001,-13.190002c25.679993,-1.119995 51.399994,-1 77.100006,-0.610001c6.819977,0.190002 13.669983,0.289993 20.470001,0.889999c14.089996,1.819992 26.269989,10.960007 34.319977,22.339996c5.940002,8.690002 8.51001,19.350006 8.559998,29.790009c0.580017,31.009995 0.300018,62.029984 0.310028,93.050003c-0.170013,10.329987 0.029999,20.679993 -0.620026,31c-0.160004,5.319977 -3.029999,10.769989 -7.940002,13.139984c-5.97998,3.429993 -13.889984,3.279999 -19.669983,-0.509979c-2.709991,-1.720001 -4.48999,-4.450012 -6.320007,-7.01001c-0.179993,-39.839996 -0.350006,-79.679993 -0.529999,-119.520004c-2.589996,-0.009995 -5.179993,-0.009995 -7.76001,0c-0.009979,62.289993 0.01001,124.580002 -0.009979,186.87001c-0.119995,37.309998 0.259979,74.630005 -0.52002,111.940002c-0.23999,5.959961 -0.220001,11.98999 -1.470001,17.839966c-0.709991,3.490051 -3.809998,5.670044 -6.299988,7.910034c-5.619995,4.769958 -13.519989,5 -20.48999,4.190002c-6.25,-0.730042 -11.529999,-4.880005 -15.119995,-9.840027c-1.950012,-3.649963 -1.930023,-7.940002 -2.25,-11.959961c-0.870026,-20.690002 -0.51001,-41.400024 -0.620026,-62.100037c-0.039978,-38.709991 0,-77.410004 -0.019989,-116.119995c-2.600006,-0.01001 -5.190002,-0.01001 -7.779999,-0.01001c-0.059998,49.060028 0.079987,98.110016 -0.140015,147.170044c-0.059998,11.019958 -0.119995,22.029968 -0.509979,33.039978c0.649994,11.080017 -10.130005,19.960022 -20.649994,20.22998c-9.090027,1.580017 -18.400024,-3.529968 -22.980011,-11.299988c-2.369995,-3.880005 -1.640015,-8.609985 -1.910004,-12.919983c-0.75,-55.690002 -0.540009,-111.390015 -0.619995,-167.080017c0,-45.950012 0.01001,-91.910004 0,-137.860001c-2.600006,-0.009995 -5.199997,-0.009995 -7.800003,0c-0.100006,36.280014 0.220001,72.560013 -0.259995,108.830002c-0.25,4.600006 0.199997,9.730011 -2.770004,13.609985c-6.389999,9.200012 -21.759995,9.350006 -28.509995,0.440002c-2.350006,-2.399994 -2.75,-5.809998 -2.810013,-9c-0.899994,-22.319977 -0.869995,-44.660004 -0.909988,-67c0.139999,-22.679993 0.079987,-45.389984 1.229996,-68.049988c1.190002,-10.889999 7.429993,-20.720001 15.190002,-28.199997z" fill="#ea5255"/>
  </g>
  <g id="#656565ff">
   <path id="svg_3" d="m1404.560059,126.760002c6.369995,-1.060005 13.089966,-0.230003 18.839966,2.82c7.630005,3.830002 13.390015,10.779999 16.73999,18.539993c3.48999,8.180008 3.280029,17.330002 2.5,26.01001c-2.099976,17.87999 -20.109985,31.190002 -37.660034,30.110001c-15.709961,-1.540009 -30.5,-14.110001 -32.369995,-30.180008c-0.559937,-7.48999 -1.160034,-15.429993 1.920044,-22.48999c2.059937,-5.770004 4.709961,-11.530014 9.26001,-15.780014c5.539917,-5.439987 13.179932,-8.109993 20.77002,-9.029991z" fill="#ea5255"/>
   <path id="svg_4" d="m1084.72998,133.690002c9.130005,-3.419998 19.469971,-3.770004 28.839966,-1.080002c14.180054,4.190002 23.52002,18.850006 23.390015,33.330002c0.100098,34.179993 0,68.360001 0.050049,102.540009c17.119995,-8.160004 35.890015,-13.170013 54.929932,-13.340012c19.710083,-0.080002 39.720093,2.949997 57.780029,11.139999c16.840088,7.540009 31.52002,19.589996 42.609985,34.309998c17.450073,20.76001 28.700073,47.110016 29.100098,74.420013c-0.02002,53.339996 -0.060059,106.679993 0.009888,160.02002c0.5,7.899963 -0.909912,16.209961 -5.709961,22.679993c-9.400024,12.759949 -27.969971,18.639954 -42.660034,12.079956c-8.75,-3.949951 -16.599976,-10.779968 -20.009888,-19.929993c-3.220093,-7.909973 -2.360107,-16.579956 -2.470093,-24.899963c0,-44.650024 0,-89.290009 0,-133.930023c-0.02002,-4.350006 0.220093,-8.730011 -0.529907,-13.029999c-1.800049,-11.769989 -4.730103,-23.700012 -11.300049,-33.779999c-4.359985,-6.709991 -10.709961,-12.230011 -18.310059,-14.910004c-11.459961,-4.799988 -24.199951,-5.23999 -36.429932,-4.230011c-10.920044,1.060028 -22.27002,4.75 -29.75,13.170013c-4.820068,5.369995 -7.369995,12.25 -10.290039,18.730011c-3.47998,8.629974 -6.719971,17.619995 -6.98999,27.009979c0.02002,48.990021 0,97.980011 0.02002,146.97998c0.27002,8.990051 -0.530029,18.580017 -5.880005,26.160034c-9.98999,14.109985 -30.849976,18.869995 -46.089966,10.820007c-6.700073,-3.600037 -12.950073,-8.830017 -15.820068,-16.059998c-3.829956,-8.460022 -2.97998,-17.920044 -3.039917,-26.940002c-0.01001,-117.990021 0.009888,-235.970001 -0.01001,-353.960007c-0.150024,-6.139999 0.169922,-12.419998 2.409912,-18.200012c2.940063,-8 8.930054,-14.689987 16.150024,-19.099991z" fill="#ea5255"/>
   <path id="svg_5" d="m1690.939941,135.970001c13.410034,-6.770004 31.910034,-4.770004 41.560059,7.470001c7.22998,6.410004 11.430054,15.830002 11.25,25.5c0.040039,85.349991 0,170.709991 0.02002,256.059998c0.329956,26.470001 -4.339966,53.059998 -14.050049,77.709991c-7.159912,17.639984 -18.219971,33.930023 -33.109985,45.930023c-9.679932,7.969971 -20.949951,13.799988 -32.75,17.919983c-13.369995,4.859985 -27.630005,7.309998 -41.849976,6.98999c-7.349976,-0.419983 -14.76001,-0.190002 -22.040039,-1.5c-13.48999,-2.119995 -26.439941,-7.080017 -38.309937,-13.769958c-5.27002,-2.930054 -10.180054,-6.430054 -15.320068,-9.550049c-9,-5.039978 -15.77002,-13.079956 -22.429932,-20.769958c-22.73999,-27.300018 -33.210083,-62.920013 -35.01001,-97.960022c-1.670044,-34.019989 1.839966,-69.279999 16.849976,-100.279999c13.589966,-28.190002 37.75,-51.410004 66.910034,-62.980011c9.76001,-3.759979 20,-6.190002 30.349976,-7.639984c23.880005,-3.880005 48.170044,2.399994 69.939941,12.059998c0.030029,-34.730011 -0.079956,-69.460007 0.050049,-104.180008c0.109985,-12.459991 6.819946,-25.050003 17.939941,-31.009995m-84.47998,192.720001c-9.289917,2.970001 -18.5,7.25 -25.380005,14.329987c-6.849976,6.970001 -11.75,15.690002 -14.929932,24.890015c-5.359985,15.410004 -6.859985,31.880005 -6.780029,48.100006c0.550049,23.839996 6.109985,48.549988 20.959961,67.709991c3.590088,4.299988 7.030029,9.220001 12.400024,11.440002c7.180054,3.51001 14.680054,6.449982 22.450073,8.389984c8.709961,0.710022 17.919922,0.690002 25.839966,-3.539978c5.22998,-3.02002 10.969971,-5.390015 15.329956,-9.710022c7.01001,-6.759979 10.960083,-16.039978 13.25,-25.359985c4.77002,-18.959991 3.01001,-38.649994 3.339966,-58c-0.309937,-15.769989 1.180054,-31.850006 -2.699951,-47.320007c-3.280029,-8.859985 -10.630005,-15.459991 -18.23999,-20.669983c-6.660034,-4.940002 -14.790039,-7.140015 -22.719971,-9.090027c-7.469971,-1.569977 -15.320068,-3.869995 -22.820068,-1.169983z" fill="#ea5255"/>
   <path id="svg_6" d="m697.51001,249.820007c8.209961,-2.180008 17.299988,-1.300003 24.799988,2.789993c6.970032,3.729996 12.419983,9.719986 16.970032,16.080002c4.699951,6.720001 6.439941,15.410004 4.559998,23.399994c-7.76001,34.450012 -17.050049,68.529999 -27.300049,102.309998c-5.529968,17.660004 -10.699951,35.459991 -17.349976,52.740021c-7.98999,21.25 -16.280029,42.419983 -26.049988,62.929993c-6.480042,13.880005 -14.280029,27.159973 -23.940002,39.080017c-7.73999,10.589966 -18.710022,19.159973 -31.590027,22.319946c-7.719971,1.930054 -15.839966,2.300049 -23.709961,1.230042c-14.76001,-3.070007 -27.950012,-11.570007 -38.070007,-22.590027c-13.01001,-13.779968 -21.920044,-30.690002 -30.330017,-47.5c-6.280029,-16.459991 -13.219971,-32.679993 -18.839996,-49.399994c-18.050018,-51.98999 -31.580017,-105.429993 -43.5,-159.119995c-2.459991,-10.369995 0.169983,-21.690002 7.049988,-29.850006c6.080017,-7.169983 14.029999,-14.049988 23.880005,-14.539993c8.019989,-0.080002 16.5,-0.410004 23.829987,3.430008c8.730042,4.329987 14.600037,12.880005 17.880005,21.820007c9.660034,40.970001 19.640015,81.889984 31.809998,122.190002c5.540039,18.73999 11.630005,37.319977 18.670044,55.549988c3.349976,9.220001 8.349976,17.709991 12.529968,26.549988c0.809998,1.130005 1.390015,3.529999 3.210022,3.040009c1.849976,-1.450012 2.419983,-3.850006 3.369995,-5.880005c18.279968,-40.130005 31.890015,-82.190002 44.440002,-124.410004c5.98999,-19.919983 11.380005,-40.009979 16.809998,-60.089996c1.709961,-5.48999 1.76001,-11.339996 3.719971,-16.769989c2.809998,-8.959991 9.140015,-16.899994 17.690002,-20.950012c3.179993,-1.389999 6.25,-3.039993 9.460022,-4.359985z" fill="#ea5255"/>
   <path id="svg_7" d="m1400.449951,255.630005c8.619995,-1.25 17.960083,-0.230011 25.400024,4.579987c10.040039,6.880005 17.450073,18.360016 17.180054,30.820007c0.049927,81.980011 0.02002,163.959991 0.02002,245.930023c0.049927,7.369995 -1.860107,14.889954 -6.280029,20.869995c-8.719971,11.849976 -25.140015,18.639954 -39.430054,13.700012c-9.039917,-3.190002 -17.25,-9.560059 -21.589966,-18.220032c-2.51001,-5.039978 -3.560059,-10.710022 -3.52002,-16.309998c0,-81 0.02002,-162 -0.01001,-243c-0.140015,-4.880005 0.290039,-9.899994 2.420044,-14.359985c2.290039,-4.660004 4.089966,-9.650024 7.449951,-13.680023c4.450073,-5.699982 11.25,-9.299988 18.359985,-10.329987z" fill="#ea5255"/>
   <path id="svg_8" d="m825.099976,293.100006c31.600037,-25.600006 77.850037,-32.119995 115.01001,-15.290009c25.780029,11.390015 47.109985,32.220001 59.640015,57.420013c9.630005,19.129974 14.330017,40.459991 15.570007,61.759979c0.080017,44.680023 0,89.369995 0.039978,134.049988c0.049988,11.420044 -0.649963,23.220032 -5.25,33.840027c-4.200012,10.400024 -15.049988,17.460022 -26.169983,17.76001c-8.470032,0.219971 -17.330017,-1.330017 -24.409973,-6.230042c-5.860046,-3.929993 -9.790039,-10.069946 -12.370056,-16.509949c-21.089966,11 -45.75,14.599976 -69.159973,10.579956c-9.619995,-1.76001 -19.419983,-3.699951 -28.140015,-8.309998c-13.820007,-6.73999 -26.950012,-15.219971 -37.73999,-26.25c-11.679993,-11.679993 -20.72998,-25.889984 -26.839966,-41.209991c-7.600037,-18.98999 -10.970032,-39.369995 -12.850037,-59.649994c-3.059998,-34.929993 2.51001,-71.169983 19.48999,-102.130005c8.110046,-15.419983 19.610046,-28.949982 33.179993,-39.829987m61.390015,48.570007c-11.76001,2.589996 -23.549988,8.079987 -30.609985,18.220001c-5.77002,7.75 -7.460022,17.459991 -9.570007,26.649994c-4.909973,23.049988 -4.330017,47.190002 1.280029,70.049988c0.919983,3.540009 0.789978,7.309998 2.139954,10.75c2.900024,7.450012 6.890015,14.649994 12.73999,20.209991c8.580017,8.320007 20.640015,12.529999 32.5,12.540009c7.850037,0.050018 16.300049,0.23999 23.320007,-3.839996c6.679993,-3.649994 12.140015,-9.329987 15.940002,-15.899994c8.300049,-14.570007 10.75,-31.75 10.440002,-48.300018c-0.049988,-19.049988 -0.169983,-38.349976 -4.429993,-57c-2.089966,-10.289978 -8.859985,-19 -16.969971,-25.369995c-10.280029,-7.880005 -24.170044,-10.669983 -36.780029,-8.009979z" fill="#ea5255"/>
  </g>
 </g>
</svg>